<svg xmlns="http://www.w3.org/2000/svg" viewBox="0 0 586.8 586.79"><defs><style>.cls-1{fill:#edeef7;}</style></defs><title>git</title><g id="Camada_2" data-name="Camada 2"><g id="Camada_1-2" data-name="Camada 1"><path class="cls-1" d="M575.73,267.26,319.53,11.07a37.79,37.79,0,0,0-53.45,0l-53.19,53.2,67.48,67.49A44.87,44.87,0,0,1,337.2,189l65,65a44.94,44.94,0,0,1,46.46,74.26,43.65,43.65,0,0,1-3.27,3c-1.14.94-2.32,1.81-3.54,2.63a44.14,44.14,0,0,1-3.79,2.27c-1.3.7-2.63,1.32-4,1.89s-2.75,1.06-4.16,1.49-2.83.78-4.28,1.07-2.9.5-4.36.65-2.94.21-4.41.21-2.94-.07-4.41-.21-2.92-.36-4.37-.65-2.87-.65-4.28-1.07-2.79-.93-4.15-1.49-2.69-1.19-4-1.89a44.14,44.14,0,0,1-3.79-2.27,45.62,45.62,0,0,1-6.81-5.59,44.52,44.52,0,0,1-7.85-10.58,45.22,45.22,0,0,1-4.45-12.4,44.91,44.91,0,0,1-.81-6.55,45.47,45.47,0,0,1,.15-6.6,45,45,0,0,1,1.11-6.51,46,46,0,0,1,2.06-6.27l-60.65-60.65V378.34a44.87,44.87,0,1,1-37-1.31V215.92A44.05,44.05,0,0,1,263,206.1a44.93,44.93,0,0,1-9.68-49.16L186.74,90.41,11.07,266.07c-.88.88-1.71,1.8-2.49,2.75s-1.52,1.95-2.21,3S5.05,273.89,4.46,275s-1.11,2.21-1.58,3.36a36.25,36.25,0,0,0-1.25,3.49c-.36,1.19-.66,2.38-.9,3.6a34.93,34.93,0,0,0-.55,3.67c-.12,1.23-.18,2.46-.18,3.7s.06,2.48.18,3.71a35.32,35.32,0,0,0,.55,3.67q.36,1.81.9,3.6c.36,1.18.77,2.34,1.25,3.49s1,2.26,1.58,3.35,1.22,2.15,1.91,3.18a35.88,35.88,0,0,0,2.21,3,34.12,34.12,0,0,0,2.49,2.75l256.21,256.2a37.81,37.81,0,0,0,53.45,0l255-255a34.12,34.12,0,0,0,2.49-2.75c.79-1,1.52-2,2.21-3s1.32-2.09,1.91-3.18,1.11-2.21,1.58-3.35a37.89,37.89,0,0,0,2.15-7.1c.24-1.21.43-2.43.55-3.67s.18-2.46.18-3.7-.06-2.47-.18-3.71-.31-2.45-.55-3.66a36.42,36.42,0,0,0-.9-3.6c-.36-1.19-.78-2.35-1.25-3.5a35.32,35.32,0,0,0-1.59-3.35,36.56,36.56,0,0,0-1.9-3.18c-.69-1-1.43-2-2.21-3S576.6,268.14,575.73,267.26Z"/></g></g></svg>