<svg xmlns="http://www.w3.org/2000/svg" viewBox="0 0 954.59 954.59"><defs><style>.cls-1{fill:#161b22;}.cls-2{fill:#edeef7;}</style></defs><title>git_</title><g id="Camada_2" data-name="Camada 2"><g id="Camada_1-2" data-name="Camada 1"><g id="git_"><rect class="cls-1" width="954.59" height="954.59" rx="477.29"/><g id="Camada_1-2-2" data-name="Camada 1-2"><path class="cls-2" d="M759.63,451.14,503.43,195a37.8,37.8,0,0,0-53.45,0h0l-53.19,53.2,67.48,67.49a44.87,44.87,0,0,1,56.83,57.24l65,65a44.94,44.94,0,0,1,46.46,74.26q-1.56,1.58-3.27,3c-1.14.94-2.32,1.81-3.54,2.63A44.14,44.14,0,0,1,622,520c-1.3.7-2.63,1.32-4,1.89s-2.75,1.06-4.16,1.49-2.83.78-4.28,1.07-2.9.5-4.36.65a43.26,43.26,0,0,1-4.41.21q-2.21,0-4.41-.21a43,43,0,0,1-4.37-.65c-1.45-.29-2.87-.65-4.28-1.07a43.62,43.62,0,0,1-4.15-1.49,44.13,44.13,0,0,1-4-1.89,41.26,41.26,0,0,1-3.79-2.27,45.12,45.12,0,0,1-6.81-5.59,44.21,44.21,0,0,1-7.85-10.58,45,45,0,0,1-4.45-12.4,42.48,42.48,0,0,1-.81-6.55,45.44,45.44,0,0,1,.15-6.6,44.48,44.48,0,0,1,3.17-12.78L498.5,402.62v159.6a44.87,44.87,0,1,1-37-1.31V399.8A44,44,0,0,1,446.9,390a44.91,44.91,0,0,1-9.68-49.16l-66.58-66.53L195,450c-.88.88-1.71,1.8-2.49,2.75a35.15,35.15,0,0,0-2.21,3c-.69,1.05-1.32,2.07-1.91,3.18a36.61,36.61,0,0,0-1.58,3.36,32.92,32.92,0,0,0-1.25,3.49c-.36,1.19-.66,2.38-.9,3.6a32.49,32.49,0,0,0-.55,3.67c-.12,1.23-.18,2.46-.18,3.7s.06,2.48.18,3.71a32.49,32.49,0,0,0,.55,3.67q.36,1.82.9,3.6c.36,1.18.77,2.34,1.25,3.49s1,2.26,1.58,3.35a36.66,36.66,0,0,0,1.91,3.18,34.05,34.05,0,0,0,2.21,3,32.34,32.34,0,0,0,2.49,2.75l256.21,256.2a37.81,37.81,0,0,0,53.45,0l255-255a36.11,36.11,0,0,0,2.49-2.75c.78-1,1.52-2,2.21-3a34.76,34.76,0,0,0,1.91-3.18c.58-1.09,1.11-2.21,1.58-3.35a39,39,0,0,0,2.15-7.1c.24-1.21.43-2.43.55-3.67s.18-2.46.18-3.7-.06-2.47-.18-3.71-.31-2.45-.55-3.66a36.42,36.42,0,0,0-.9-3.6c-.36-1.19-.78-2.35-1.25-3.5s-1-2.26-1.59-3.35a36.66,36.66,0,0,0-1.91-3.18c-.69-1-1.43-2-2.21-3A31.21,31.21,0,0,0,759.63,451.14Z"/></g></g></g></g></svg>