<svg xmlns="http://www.w3.org/2000/svg" viewBox="0 0 954.59 954.59"><defs><style>.cls-1{fill:#161b22;}.cls-2{fill:#edeef7;fill-rule:evenodd;}</style></defs><title>github_</title><g id="Camada_2" data-name="Camada 2"><g id="Camada_1-2" data-name="Camada 1"><g id="github_"><rect class="cls-1" width="954.59" height="954.59" rx="477.29"/><g id="Camada_1-2-2" data-name="Camada 1-2"><path class="cls-2" d="M477.32,203.52c-155,0-280.71,125.67-280.71,280.71,0,124,80.43,229.29,192,266.37,14,2.6,19.17-6.09,19.17-13.5,0-6.7-.26-28.81-.38-52.27-78.09,17-94.57-33.12-94.57-33.12-12.8-32.44-31.22-41.07-31.22-41.07-25.47-17.42,1.92-17.06,1.92-17.06,28.18,2,43,28.93,43,28.93,25,42.9,65.67,30.5,81.69,23.33C410.74,627.7,418,615.31,426,608.3c-62.35-7.09-127.9-31.16-127.9-138.72,0-30.65,11-55.69,28.93-75.35-2.92-7.07-12.53-35.62,2.71-74.29,0,0,23.57-7.54,77.21,28.78a266,266,0,0,1,140.6,0C601.16,312.4,624.7,320,624.7,320c15.28,38.66,5.68,67.21,2.76,74.28,18,19.66,28.89,44.7,28.89,75.35,0,107.81-65.67,131.55-128.18,138.5,10.08,8.71,19.05,25.8,19.05,52,0,37.56-.33,67.79-.33,77,0,7.47,5.06,16.22,19.29,13.47C677.65,713.39,758,608.2,758,484.22,758,329.2,632.35,203.52,477.32,203.52Z"/></g></g></g></g></svg>