<svg xmlns="http://www.w3.org/2000/svg" viewBox="0 0 561.42 547.56"><defs><style>.cls-1{fill:#edeef7;fill-rule:evenodd;}</style></defs><title>github</title><g id="Camada_2" data-name="Camada 2"><g id="Camada_1-2" data-name="Camada 1"><path class="cls-1" d="M280.71,0C125.7,0,0,125.67,0,280.71,0,404.74,80.43,510,192,547.08c14,2.6,19.17-6.09,19.17-13.5,0-6.7-.26-28.81-.38-52.27-78.09,17-94.57-33.12-94.57-33.12C103.42,415.75,85,407.12,85,407.12c-25.47-17.42,1.92-17.06,1.92-17.06,28.18,2,43,28.93,43,28.93,25,42.9,65.67,30.5,81.69,23.33,2.52-18.14,9.79-30.53,17.82-37.54-62.35-7.09-127.9-31.16-127.9-138.72,0-30.65,11-55.69,28.93-75.35-2.92-7.07-12.53-35.62,2.71-74.29,0,0,23.57-7.54,77.21,28.78a266.08,266.08,0,0,1,140.6,0c53.57-36.32,77.11-28.77,77.11-28.77,15.28,38.66,5.68,67.21,2.76,74.28,18,19.66,28.89,44.7,28.89,75.35,0,107.81-65.67,131.55-128.18,138.5,10.08,8.71,19.05,25.8,19.05,52,0,37.56-.33,67.79-.33,77,0,7.47,5.06,16.22,19.29,13.47,111.47-37.16,191.8-142.35,191.8-266.33C561.42,125.68,435.74,0,280.71,0Z"/></g></g></svg>