<svg xmlns="http://www.w3.org/2000/svg" viewBox="0 0 954.59 954.59"><defs><style>.cls-1{fill:#161b22;}.cls-2{fill:#edeef7;}</style></defs><title>gmail_</title><g id="Camada_2" data-name="Camada 2"><g id="Camada_1-2" data-name="Camada 1"><g id="gmail_"><rect class="cls-1" width="954.59" height="954.59" rx="477.29"/><path class="cls-2" d="M309.15,460.77V292.45l-1.55-1.15h-.13l-35.31-26.13c-21.6-16-52.38-15.26-71.52,3.62a69.85,69.85,0,0,0-20.82,49.8v46.59Zm336.29-.17v.17l129.34-95.59V318.59a69.94,69.94,0,0,0-20.44-49.54,53.94,53.94,0,0,0-70.15-5.21L647,291.3l-1.55,1.15ZM335,479.72l134.59,99.49a13,13,0,0,0,15.38,0l134.58-99.49V311.56L477.3,416.76,335,311.56Zm310.42,13.2V688.37a12.93,12.93,0,0,0,12.93,12.93h84.07A32.33,32.33,0,0,0,774.78,669V397.32Zm-336.29,0-129.33-95.6V669a32.32,32.32,0,0,0,32.33,32.33h84.07a12.93,12.93,0,0,0,12.93-12.93Z"/></g></g></g></svg>