<svg xmlns="http://www.w3.org/2000/svg" viewBox="0 0 585.78 585.71"><defs><style>.cls-1{fill:#edeef7;fill-rule:evenodd;}</style></defs><title>illustrator</title><g id="Camada_2" data-name="Camada 2"><g id="Camada_1-2" data-name="Camada 1"><path class="cls-1" d="M421.46,204.2c-17,0-29.23-11.75-29.35-28.21s12.58-28.63,29.78-28.65,29.54,11.79,29.67,28.68C451.69,192.5,439.17,204.23,421.46,204.2ZM451,441.6H395.2V232.42H451Zm-96.23,0c-7.61,0-15.25-.62-22.82-.07-5.46.41-7.29-1.89-8.75-6.63-7-22.92-14.51-45.84-21.56-68.75-1.41-4.61-3.44-6.3-8.44-6.24q-38.51.45-77,0c-5.4-.06-7.89,1.38-9.43,6.74C200.17,389.42,193,412,186.42,434.8c-1.43,4.94-3.61,6.66-8.85,6.53-15.43-.39-30.87-.15-47.76-.15,4.46-14.16,8.5-27.25,12.68-40.28Q181,281,219.29,161c1.78-5.57,4.25-7.28,10-7.16,18.07.4,36.14.1,54.22,0,3.38,0,5.68.18,6.92,4,30.24,93.5,60.58,187.59,90.9,281.09.13.42,0,2.66.12,2.66ZM572.36,0H8.79C-1.37,0,.08,2.21.08,12V576.31c0,9.79-1.45,9.39,8,9.39h565c9.45,0,12.71.4,12.71-9.4V12.73C585.78,2.21,582.52,0,572.36,0Zm-354,316.09H289.8c-12.3-41.83-24.41-80.51-36.33-119.81C241.9,235.72,230.17,274.26,218.35,316.09Z"/></g></g></svg>