<svg xmlns="http://www.w3.org/2000/svg" viewBox="0 0 954.59 954.59"><defs><style>.cls-1{fill:#161b22;}.cls-2{fill:#edeef7;fill-rule:evenodd;}</style></defs><title>illustrator_</title><g id="Camada_2" data-name="Camada 2"><g id="Camada_1-2" data-name="Camada 1"><g id="illustrator_"><rect class="cls-1" width="954.59" height="954.59" rx="477.29"/><g id="Camada_1-2-2" data-name="Camada 1-2"><path class="cls-2" d="M605.86,388.64c-17,0-29.23-11.75-29.35-28.21s12.58-28.63,29.78-28.65,29.54,11.79,29.67,28.68C636.09,376.94,623.57,388.67,605.86,388.64ZM635.4,626H579.6V416.86h55.8Zm-96.23,0c-7.61,0-15.25-.62-22.82-.07-5.46.41-7.29-1.89-8.75-6.63-7-22.92-14.51-45.84-21.56-68.75-1.41-4.61-3.44-6.3-8.44-6.24q-38.5.45-77,0c-5.4-.06-7.89,1.38-9.43,6.74-6.6,22.77-13.77,45.35-20.35,68.15-1.43,4.94-3.61,6.66-8.85,6.53-15.43-.39-30.87-.15-47.76-.15,4.46-14.16,8.5-27.25,12.68-40.28q38.5-119.89,76.8-239.9c1.78-5.57,4.25-7.28,10-7.16,18.07.4,36.14.1,54.22,0,3.38,0,5.68.18,6.92,4,30.24,93.5,60.58,187.59,90.9,281.09.13.42,0,2.66.12,2.66Zm217.59-441.6H193.19c-10.16,0-8.71,2.21-8.71,12V760.75c0,9.79-1.45,9.39,8,9.39h565c9.45,0,12.71.4,12.71-9.4V197.17C770.18,186.65,766.92,184.44,756.76,184.44Zm-354,316.09H474.2C461.9,458.7,449.79,420,437.87,380.72c-11.57,39.44-23.3,78-35.12,119.81Z"/></g></g></g></g></svg>