<svg xmlns="http://www.w3.org/2000/svg" viewBox="0 0 954.59 954.59"><defs><style>.cls-1{fill:#161b22;}.cls-2{fill:#edeef7;}</style></defs><title>linkedin_</title><g id="Camada_2" data-name="Camada 2"><g id="Camada_1-2" data-name="Camada 1"><g id="linkedin_"><rect class="cls-1" width="954.59" height="954.59" rx="477.29"/><g id="Camada_1-2-2" data-name="Camada 1-2"><path class="cls-2" d="M677.19,677.18H593V545.4c0-31.38-.55-71.78-43.74-71.78s-50.51,34.22-50.51,69.73V677.18h-84V406.32h80.7V443.5h1.11c11.19-21.29,38.62-43.76,79.57-43.76,85.25-.19,101.06,55.92,101.06,128.67ZM320.05,369.41c-1.6,0-3.2-.08-4.79-.23a47.5,47.5,0,0,1-4.74-.7c-1.57-.31-3.11-.7-4.65-1.16s-3-1-4.51-1.61a43.86,43.86,0,0,1-4.33-2,47.47,47.47,0,0,1-4.11-2.46,44.49,44.49,0,0,1-3.85-2.85,46.94,46.94,0,0,1-3.55-3.21,43.31,43.31,0,0,1-3.22-3.55,46.05,46.05,0,0,1-2.86-3.84c-.86-1.32-1.71-2.7-2.47-4.11a36,36,0,0,1-2-4.33c-.56-1.48-1.15-3-1.62-4.51a45.13,45.13,0,0,1-1.16-4.65,48.64,48.64,0,0,1-.95-9.52c0-1.6.08-3.19.24-4.79a44.76,44.76,0,0,1,.7-4.74,47,47,0,0,1,1.16-4.64q.69-2.29,1.61-4.52c.61-1.47,1.29-2.92,2-4.33a40.94,40.94,0,0,1,2.46-4.11,46.21,46.21,0,0,1,2.86-3.85c1-1.24,2.08-2.42,3.21-3.55s2.32-2.2,3.55-3.22a39,39,0,0,1,3.85-2.85c1.33-.85,2.7-1.71,4.11-2.47a36,36,0,0,1,4.33-2q2.22-.92,4.51-1.61c1.52-.48,3.07-.88,4.63-1.21a50,50,0,0,1,9.53-.94c1.59,0,3.19.08,4.78.23a47.5,47.5,0,0,1,4.74.7,46.5,46.5,0,0,1,4.65,1.17c1.53.47,3,1,4.51,1.61s2.92,1.26,4.33,2,2.78,1.58,4.11,2.46,2.62,1.84,3.85,2.85a46.87,46.87,0,0,1,3.55,3.22q1.69,1.69,3.22,3.55a40.25,40.25,0,0,1,2.85,3.85,49.32,49.32,0,0,1,4.51,8.44,45.74,45.74,0,0,1,1.62,4.51c.46,1.53.85,3.08,1.16,4.64a48.15,48.15,0,0,1,0,19.06c-.31,1.57-.71,3.12-1.17,4.65a46,46,0,0,1-1.63,4.51,47.82,47.82,0,0,1-2.06,4.33,49.32,49.32,0,0,1-5.34,7.95,47.39,47.39,0,0,1-3.23,3.55,45.37,45.37,0,0,1-3.57,3.21,46.12,46.12,0,0,1-3.86,2.84,45.13,45.13,0,0,1-4.12,2.45,39.52,39.52,0,0,1-4.34,2c-1.48.58-3,1.12-4.52,1.6s-3.09.84-4.66,1.15a47.47,47.47,0,0,1-4.74.69c-1.6.15-3.19.22-4.79.21Zm41.83,307.77H277.75V406.32h84.18ZM719,193.74H235.59a34.37,34.37,0,0,0-4.06.16c-1.35.16-2.69.3-4,.55a31.31,31.31,0,0,0-3.95,1c-1.3.37-2.58.8-3.83,1.29s-2.49,1.07-3.69,1.69-2.39,1.31-3.53,2-2.23,1.54-3.28,2.38a35.22,35.22,0,0,0-3,2.69c-.93.94-1.89,1.94-2.76,3s-1.74,2.1-2.5,3.2a39,39,0,0,0-2.12,3.46,39.64,39.64,0,0,0-1.78,3.65,40.35,40.35,0,0,0-1.41,3.8,31.87,31.87,0,0,0-1,3.93c-.24,1.33-.49,2.66-.64,4a36.77,36.77,0,0,0-.29,4.07V720a35,35,0,0,0,.26,4c.15,1.3.37,2.68.65,4a40.18,40.18,0,0,0,1,3.92,39.41,39.41,0,0,0,1.42,3.8,37.12,37.12,0,0,0,1.78,3.64q1,1.77,2.13,3.45a38.45,38.45,0,0,0,2.45,3.22,39.23,39.23,0,0,0,2.76,3c1,.95,2,1.84,3,2.69a37.9,37.9,0,0,0,3.28,2.37c1.14.74,2.3,1.42,3.5,2s2.43,1.18,3.69,1.69a40.27,40.27,0,0,0,3.83,1.32c1.3.38,2.61.69,3.94.94a41.19,41.19,0,0,0,8.07.71H719a34.37,34.37,0,0,0,4.06-.16c1.35-.16,2.69-.31,4-.57a33.12,33.12,0,0,0,3.95-1,36.89,36.89,0,0,0,3.83-1.33c1.26-.51,2.49-1.07,3.69-1.7s2.36-1.31,3.5-2a30.15,30.15,0,0,0,3.28-2.39,36.81,36.81,0,0,0,3-2.69c.93-.94,1.89-1.94,2.76-3a38.75,38.75,0,0,0,2.45-3.24,38.35,38.35,0,0,0,2.21-3.42c.65-1.19,1.25-2.41,1.78-3.65s1-2.52,1.41-3.81a31.72,31.72,0,0,0,1-3.92c.24-1.32.5-2.66.65-4s.23-2.7.25-4.05V234.51a38.38,38.38,0,0,0-.27-4c-.16-1.33-.38-2.66-.66-4s-.64-2.63-1-3.91a31.55,31.55,0,0,0-1.42-3.79,38.65,38.65,0,0,0-4-7.07c-.77-1.11-1.59-2.18-2.46-3.22s-1.79-2-2.75-3a39,39,0,0,0-3-2.68,33.05,33.05,0,0,0-3.28-2.37,32,32,0,0,0-3.49-2c-1.21-.64-2.45-1.21-3.72-1.73s-2.53-1-3.83-1.33-2.61-.67-3.93-.94-2.66-.44-4-.56S720.37,193.74,719,193.74Z"/></g></g></g></g></svg>