<svg xmlns="http://www.w3.org/2000/svg" viewBox="0 0 567.11 567.11"><defs><style>.cls-1{fill:#edeef7;}</style></defs><title>linkedin</title><g id="Camada_2" data-name="Camada 2"><g id="Camada_1-2" data-name="Camada 1"><path class="cls-1" d="M483.44,483.44H399.25V351.66c0-31.38-.55-71.78-43.74-71.78S305,314.1,305,349.61V483.44h-84V212.58h80.7v37.18h1.11C314,228.47,341.43,206,382.38,206c85.25-.19,101.06,55.92,101.06,128.67ZM126.3,175.67c-1.6,0-3.2-.08-4.79-.23s-3.17-.39-4.74-.7-3.11-.7-4.65-1.16-3-1-4.51-1.61a46.25,46.25,0,0,1-4.33-2.05,47.47,47.47,0,0,1-4.11-2.46,46.09,46.09,0,0,1-3.85-2.85,46.94,46.94,0,0,1-3.55-3.21,45,45,0,0,1-3.22-3.55c-1-1.23-2-2.52-2.86-3.84s-1.71-2.7-2.47-4.11-1.44-2.85-2-4.33-1.15-3-1.62-4.51-.85-3.08-1.16-4.65a47.1,47.1,0,0,1-.71-4.74,47.66,47.66,0,0,1-.24-4.78c0-1.6.08-3.19.24-4.79a44.76,44.76,0,0,1,.7-4.74,47,47,0,0,1,1.16-4.64q.69-2.3,1.61-4.52c.61-1.47,1.29-2.92,2-4.33s1.58-2.78,2.46-4.11,1.84-2.61,2.86-3.85,2.08-2.42,3.21-3.55,2.32-2.2,3.55-3.22,2.52-2,3.85-2.85,2.7-1.71,4.11-2.47,2.85-1.44,4.33-2a47.38,47.38,0,0,1,4.51-1.61A46.31,46.31,0,0,1,116.71,79a49.67,49.67,0,0,1,9.53-.94c1.59,0,3.19.08,4.78.23s3.17.39,4.74.7,3.12.7,4.65,1.17,3,1,4.51,1.61a46.25,46.25,0,0,1,4.33,2,47.47,47.47,0,0,1,4.11,2.46q2,1.33,3.85,2.85c1.23,1,2.42,2.09,3.55,3.22s2.2,2.31,3.22,3.55,2,2.52,2.85,3.85a47.47,47.47,0,0,1,2.46,4.11,46.25,46.25,0,0,1,2.05,4.33,47.44,47.44,0,0,1,1.62,4.51c.46,1.53.85,3.08,1.16,4.64a48.07,48.07,0,0,1,0,19.06c-.31,1.57-.71,3.12-1.17,4.65s-1,3-1.63,4.51-1.3,2.92-2.06,4.33a47.68,47.68,0,0,1-2.48,4.11,46.63,46.63,0,0,1-2.86,3.84q-1.53,1.86-3.23,3.55t-3.57,3.21a46.72,46.72,0,0,1-3.86,2.84,46.08,46.08,0,0,1-4.12,2.45q-2.12,1.13-4.34,2t-4.52,1.6c-1.53.46-3.09.84-4.66,1.15a47.47,47.47,0,0,1-4.74.69c-1.6.15-3.19.22-4.79.21Zm41.83,307.77H84V212.58h84.18ZM525.27,0H41.84c-1.36,0-2.71,0-4.06.16s-2.69.3-4,.55-2.65.57-3.95,1A39.39,39.39,0,0,0,26,3c-1.26.5-2.49,1.07-3.69,1.69S19.92,6,18.78,6.73A40.27,40.27,0,0,0,15.5,9.11c-1.06.85-2.07,1.75-3,2.69s-1.89,1.94-2.76,3S8,16.9,7.24,18s-1.47,2.27-2.12,3.46a38.43,38.43,0,0,0-1.78,3.65,39.34,39.34,0,0,0-1.41,3.8c-.41,1.3-.76,2.6-1,3.93s-.49,2.66-.64,4S0,39.55,0,40.91V526.3c0,1.35.11,2.7.26,4s.37,2.68.65,4a40.37,40.37,0,0,0,1,3.92,39.41,39.41,0,0,0,1.42,3.8,38.26,38.26,0,0,0,1.78,3.64q1,1.77,2.13,3.45a40.16,40.16,0,0,0,2.45,3.22,38.8,38.8,0,0,0,2.76,3c1,.95,2,1.84,3,2.69a40.16,40.16,0,0,0,3.28,2.37c1.14.74,2.3,1.42,3.5,2.05s2.43,1.18,3.69,1.69,2.53.94,3.83,1.32,2.61.69,3.94.94a42,42,0,0,0,8.07.71H525.27c1.36,0,2.71,0,4.06-.16s2.69-.31,4-.57,2.65-.57,3.95-1a40.34,40.34,0,0,0,3.83-1.33c1.26-.51,2.49-1.07,3.69-1.7s2.36-1.31,3.5-2,2.23-1.54,3.28-2.39,2.07-1.75,3-2.69,1.89-1.94,2.76-3a40.47,40.47,0,0,0,2.45-3.24A39.48,39.48,0,0,0,562,545.6c.65-1.19,1.25-2.41,1.78-3.65s1-2.52,1.41-3.81.76-2.6,1-3.92.5-2.66.65-4,.23-2.7.25-4.05V40.77a39,39,0,0,0-.27-4q-.24-2-.66-4c-.29-1.32-.64-2.63-1-3.91s-.89-2.55-1.42-3.79-1.13-2.45-1.79-3.64A39.32,39.32,0,0,0,559.79,18c-.77-1.11-1.59-2.18-2.46-3.22s-1.79-2-2.75-3-2-1.83-3-2.68-2.15-1.63-3.28-2.37-2.3-1.42-3.49-2A39.35,39.35,0,0,0,541.09,3a40.34,40.34,0,0,0-3.83-1.33C536,1.29,534.65,1,533.33.73a39,39,0,0,0-4-.56C528,.05,526.62,0,525.27,0Z"/></g></g></svg>