<svg xmlns="http://www.w3.org/2000/svg" viewBox="0 0 954.59 954.59"><defs><style>.cls-1{fill:#161b22;}.cls-2{fill:#edeef7;}</style></defs><title>mysql_</title><g id="Camada_2" data-name="Camada 2"><g id="Camada_1-2" data-name="Camada 1"><g id="mysql_"><rect class="cls-1" width="954.59" height="954.59" rx="477.29"/><g id="Camada_1-2-2" data-name="Camada 1-2"><path class="cls-2" d="M318,288.89a65,65,0,0,0-16.33,1.81v.91h.9c3.18,6.52,8.78,10.72,12.7,16.33q4.53,9.53,9.07,19l.9-.89c5.62-4,8.19-10.29,8.16-20-2.25-2.37-2.58-5.34-4.53-8.16C326.29,294.2,321.28,292.06,318,288.89ZM723.44,634.45c-31.9-.87-56.27,2.11-77.1,10.89-5.91,2.49-15.36,2.56-16.33,10,3.26,3.4,3.77,8.5,6.35,12.69,5,8,13.37,18.84,20.86,24.49,8.19,6.18,16.63,12.79,25.41,18.14,15.6,9.51,33,15,48.06,24.49,8.86,5.62,17.66,12.7,26.3,19,4.28,3.14,7.15,8,12.7,10v-.9c-2.92-3.72-3.67-8.82-6.35-12.71l-11.79-11.79C740,723.45,725.38,710,709.82,698.84c-12.4-8.9-40.17-20.93-45.34-35.37l-.91-.9c8.8-1,19.09-4.18,27.21-6.36,13.64-3.65,25.83-2.71,39.91-6.34l19-5.45V640.8c-7.11-7.3-12.19-17-20-23.58-20.31-17.29-42.47-34.57-65.3-49-12.66-8-28.3-13.18-41.72-20-4.52-2.29-12.45-3.47-15.43-7.26-7-9-10.88-20.37-16.32-30.84-11.38-21.92-22.56-45.87-32.65-68.94-6.88-15.73-11.37-31.24-20-45.35-41.15-67.68-85.44-108.55-154.15-148.72-14.61-8.54-32.21-11.91-50.8-16.33L303.49,229c-6.09-2.53-12.42-10-18.13-13.6-22.75-14.38-81.11-45.64-98-4.53-10.6,25.94,15.95,51.24,25.43,64.39,6.67,9.22,15.2,19.56,20,29.93,3.13,6.82,3.67,13.66,6.35,20.87,6.55,17.76,12.29,37.09,20.79,53.51,4.31,8.31,9.06,17.06,14.51,24.48,3.34,4.56,9.07,6.57,10,13.61-5.6,7.84-5.92,20-9.07,29.94-14.18,44.69-8.83,100.25,11.79,133.33,6.33,10.16,21.23,31.94,41.72,23.58,17.93-7.3,13.93-29.93,19-49.89,1.16-4.52.45-7.85,2.72-10.88v.91l16.33,32.65c12.09,19.46,33.53,39.8,51.7,53.52,9.42,7.12,16.84,19.42,29,23.58v-.91h-.91c-2.36-3.68-6.06-5.2-9.07-8.16a208.12,208.12,0,0,1-20.72-23.58c-16.53-22.44-31.13-47-44.44-72.56-6.36-12.21-11.89-25.67-17.24-38.1-2.06-4.78-2-12-6.34-14.51-5.87,9.1-14.51,16.47-19.05,27.21C322.6,541,321.67,561.94,319,583.67c-1.59.56-.89.17-1.82.9-12.63-3.05-17.07-16.05-21.77-27.21-11.87-28.22-14.08-73.64-3.63-106.12,2.71-8.41,14.92-34.87,10-42.63-2.37-7.75-10.16-12.23-14.51-18.15a142.29,142.29,0,0,1-14.52-25.4c-9.72-22-14.26-46.69-24.49-68.92-4.89-10.63-13.16-21.4-20-30.84-7.54-10.47-16-18.19-21.79-30.85-2.07-4.5-4.89-11.71-1.82-16.33,1-3.12,2.36-4.42,5.44-5.44,5.27-4.06,19.92,1.35,25.39,3.62,14.55,6,26.69,11.8,39,20,5.91,3.92,11.9,11.5,19,13.61h8.16c12.77,2.93,27.07.9,39,4.53,21.08,6.4,40,16.37,57.14,27.21,52.27,33,95,80,124.26,136.05,4.7,9,6.74,17.64,10.88,27.22,8.36,19.3,18.89,39.16,27.2,58.05s16.39,37.84,28.12,53.51c6.17,8.24,30,12.66,40.82,17.24,7.59,3.2,20,6.55,27.21,10.88,13.73,8.28,27,18.14,39.92,27.21,6.42,4.54,26.21,14.49,27.2,22.68Z"/></g></g></g></g></svg>