<svg xmlns="http://www.w3.org/2000/svg" viewBox="0 0 954.59 954.59"><defs><style>.cls-1{fill:#161b22;}.cls-2{fill:#edeef7;fill-rule:evenodd;}</style></defs><title>postgresql_</title><g id="Camada_2" data-name="Camada 2"><g id="Camada_1-2" data-name="Camada 1"><g id="postgresql_"><rect class="cls-1" width="954.59" height="954.59" rx="477.29"/><g id="Camada_1-2-2" data-name="Camada 1-2"><path class="cls-2" d="M701.51,548.36c-7.86.84-15.72,1.73-23.6,2.18-3.8.22-7.66-.5-11.5-.82-6.44-.52-12.72-2-18.17-5.39a9.59,9.59,0,0,0-9.11-1.08c-4.78,1.61-8.68,4-9.83,9.23a81.92,81.92,0,0,0-1.39,10.71,2.43,2.43,0,0,0,1.34,2,68.84,68.84,0,0,0,11.16,2.46,100.64,100.64,0,0,0,14,.05,130.91,130.91,0,0,0,15.06-1.41c11.69-2,23-5.16,33-11.79,3.62-2.39,7.21-4.84,10.81-7.26l-.3-.51c-3.84.57-7.66,1.27-11.52,1.68ZM461,545.91a7.38,7.38,0,0,0-10,.1,122.86,122.86,0,0,0-9.91,11.1c-3.65,4.42-7.07,9-11.78,12.44-6.85,5-14.84,7.05-22.87,9-6.38,1.55-12.79,3-19.19,4.49l-.08.82a50,50,0,0,0,5.72,2.61,76.92,76.92,0,0,0,30,3.75,61,61,0,0,0,21.26-5.44c9.25-4.39,16.37-11.33,22.42-19.41a10,10,0,0,0,1.59-5.08c.42-6.14-2.7-10.7-7.2-14.38ZM625.61,370.85c-2.06,5.69-6.47,8.9-12.17,9.84A13.85,13.85,0,0,1,600,375.35c-2.47-3-1.52-6.6,2.18-8.64,4.25-2.35,8.92-2.95,14.43-3.3a53.6,53.6,0,0,1,5.89,1.11C625.59,365.4,626.74,367.74,625.61,370.85Zm12.49,5c.64-5.22,1.14-10.46,1.79-15.69.26-2.1-.85-2.66-2.61-2.72-5.54-.15-11.08-.34-16.62-.45a45.12,45.12,0,0,0-18.11,3.27c-6.42,2.64-11.3,6.87-13.3,13.85A42,42,0,0,0,587.89,390a93.37,93.37,0,0,0,5.55,24c3.87,10.32,7.93,20.64,12.78,30.53,6.57,13.39,14,26.36,21,39.55,1.86,3.51,3.43,7.19,5.37,11.3a64,64,0,0,0,6.28-26.14c.19-7.48-.41-15-.84-22.49-.28-4.58-.92-9.14-1.37-13.71-.62-6.37-1.57-12.74-1.71-19.13a186.78,186.78,0,0,1,.87-19.51c.53-6.22,1.56-12.39,2.31-18.58Zm-218.66,1.43c-1.87-3.92-.8-7.17,3.54-8.67a13.52,13.52,0,0,1,3.24-.88c1.5-.15,3,0,4.56,0,5.49,0,10.78.8,15.32,4.29,2.91,2.25,3.69,5.22,1.8,8.27a14.45,14.45,0,0,1-11.75,6.93c-7.89.66-13.43-3-16.71-9.9Zm16.67,139.86c4.47-14.28,10.55-27.92,16.45-41.64a107.49,107.49,0,0,0,8.26-34.9,148.47,148.47,0,0,0,0-17.9q-.44-9.93-1.83-19.79c-1.23-8.38-2.64-16.75-4.62-25-2.15-8.89-7.56-15.08-16.84-17.37a42.33,42.33,0,0,0-17-.43A101,101,0,0,0,381.94,375c-2.4,1.52-3.71,2.74-3.3,6.17a177.57,177.57,0,0,1,1,22c0,10.4-.49,20.79-.89,31.18-.13,3.39-.62,6.75-1,10.12-.56,5.16-1.63,10.32-1.6,15.47A67.4,67.4,0,0,0,378,475.86c4.09,16.3,12.75,29.64,27,39.06a56.89,56.89,0,0,0,29,9.26c.72-2.44,1.36-4.74,2.07-7Zm179.55-245q8.12,9.42,15.38,19.54a176.29,176.29,0,0,1,22.2,42.24c2.42,6.65,4.35,13.36,3.49,20.63-.6,5.1-.55,10.27-1,15.39-.38,4.26-1.05,8.5-1.61,12.75-.82,6.41-2,12.79-2.38,19.23a155.47,155.47,0,0,0,.4,18.44c.39,6.23,1.23,12.44,1.8,18.66.65,7.06,1.52,14.12,1.72,21.19a151.66,151.66,0,0,1-.86,17.44,69.71,69.71,0,0,1-5,20.23c-1.85,4.56-4.07,9-6.17,13.56l.84.89,1.28,1L647,511A434.3,434.3,0,0,0,676,457.56q8.07-17.88,15.28-36.1a404.62,404.62,0,0,0,18.15-58.12c2.07-8.89,3.65-17.92,5.06-26.95a170.13,170.13,0,0,0,2.2-21.35,187.15,187.15,0,0,0-.9-22.71c-.52-5.69-1.92-11.41-5.49-16-5.73-7.44-11.92-14.57-19.53-20.2-6.4-4.75-12.78-9.61-19.66-13.61a126.25,126.25,0,0,0-35-13.4,175.7,175.7,0,0,0-36.49-4.26c-7.23-.16-14.5.62-21.72,1.3-6.54.61-13,1.66-19.62,2.52,7.06,4,14,7.51,20.6,11.67a161.88,161.88,0,0,1,36.84,31.76ZM366.09,493.22A81.1,81.1,0,0,1,359.8,467c-.6-8.48.41-16.93,1.28-25.38.85-8.18,1.55-16.4,1.8-24.61.4-13.51-.51-27-1.15-40.5-.39-8,.54-16.17,1.26-24.23q.87-10.9,2.82-21.68a211.46,211.46,0,0,1,9.7-35.29c4.12-10.86,8.86-21.45,15.54-31,4.59-6.53,9.79-12.64,14.79-19l-1.49-.52c-16.26-5.17-32.78-9.2-49.78-11-8-.84-16.1-1.32-24.16-1.8a46.54,46.54,0,0,0-7.46.42c-6.15.59-12.37.82-18.42,2a90.88,90.88,0,0,0-29.31,10.65,72.82,72.82,0,0,0-20.87,18.49C248,271.83,243.68,281.14,240.6,291a138.2,138.2,0,0,0-5.84,36c-.41,10.67-.62,21.4,1.22,32,1.37,7.91,2.29,15.9,3.8,23.78,2.06,10.74,4.27,21.46,6.82,32.09,3.65,15.22,7.29,30.47,11.62,45.5,4.13,14.4,8.8,28.68,13.86,42.78,4.13,11.51,8.92,22.81,14,34a192.81,192.81,0,0,0,11.42,21c4.43,7.22,9.47,14.07,16.3,19.31,8.63,6.62,15.31,7.64,24.08.39,3.76-3.11,6.93-6.95,10.2-10.61,5.19-5.81,10.2-11.78,15.37-17.61,6.58-7.43,13.25-14.77,19.86-22.17,1.4-1.56,2.75-3.17,4.11-4.75l-2.25-2a82.46,82.46,0,0,1-19-27.57ZM633.83,526c-3-3.93-6.15-7.82-9.13-11.8C620,508,616.7,501,613.29,494c-3.2-6.65-7.12-12.94-10.49-19.5-5.88-11.46-11.87-22.88-17.29-34.56-6.81-14.72-12.21-29.91-13.87-46.17-.71-6.88-.9-13.75.49-20.57,2.23-10.88,7.92-19.39,17.47-25.23,8.87-5.41,18.75-7.16,28.87-7.71,6.28-.34,12.58-.06,19.1-.06l-.22-1.1c-4.05-8.48-7.84-17.09-12.27-25.37a172.31,172.31,0,0,0-44.78-51.83,152.41,152.41,0,0,0-24.49-15.31,143.81,143.81,0,0,0-32.39-11.51,158.36,158.36,0,0,0-32.89-4c-9.5-.1-18.93.32-28.17,2.47-14,3.23-26.72,9-37.83,18.28a98.41,98.41,0,0,0-16.35,17.52,133.22,133.22,0,0,0-13.88,24.53A171.25,171.25,0,0,0,383,330.79c-1.23,6.33-2.2,12.71-3.19,19.09-.34,2.23-.37,4.51-.57,7.07,1.72-.89,2.95-1.58,4.22-2.19l4.11-1.85c13.91-6.36,28.33-10.46,43.82-10a44.81,44.81,0,0,1,18.73,4.38c11.23,5.54,17.8,15,20.65,26.87,2,8.22,3.32,16.61,4.63,25a143.35,143.35,0,0,1,2.2,19.72c.17,9.62-.31,19.27-.84,28.89a80.32,80.32,0,0,1-5,23.92c-5.21,13.92-11,27.6-16.43,41.43-1.79,4.57-3.16,9.31-4.86,14.33h6.86a10.77,10.77,0,0,1,2.47.23,30.73,30.73,0,0,1,16.06,9.08A32.89,32.89,0,0,1,485,559.19c.09,4.78-.42,9.57-.39,14.34q.15,33.38.45,66.74c0,3.63.21,7.27.47,10.9.55,7.6,1.09,15.21,1.84,22.79.52,5.38,1.24,10.75,2.09,16.09,1.21,7.57,4.65,14.3,8.56,20.74a37.23,37.23,0,0,0,13.51,13.48c9.79,5.52,20.34,6,31,4a176.92,176.92,0,0,0,21.2-5.85A47,47,0,0,0,582,711.43a44.55,44.55,0,0,0,10.7-16.89c4.53-12.36,5.95-25.37,7.82-38.29.71-4.83,1.32-9.68,2-14.52.73-5.52,1.47-11,2.17-16.53.52-4.11,1-8.22,1.5-12.33.71-5.89,1.47-11.78,2.16-17.68.52-4.56,1-9.14,1.43-13.71.6-5.84,1.25-11.67,1.76-17.52.4-4.44.24-9,1-13.31,1.44-8,5.22-14.79,12.3-19.18,3-1.84,6.3-3,9.59-4.6l-.56-.86Zm102.32,15.59a18.22,18.22,0,0,1-5.08,11c-13.33,14.7-30.06,23.62-49.2,28a169.53,169.53,0,0,1-22.21,3.22,149,149,0,0,1-19.13.45c-4.67-.18-9.31-1.24-14.09-1.93-.48,4.37-.94,8.92-1.49,13.46l-2.23,17.41c-.67,5.52-1.2,11-1.89,16.56-.68,5.35-1.52,10.69-2.23,16-.67,5-1.16,10-1.9,15-1.14,7.62-2.22,15.27-3.71,22.83a89.57,89.57,0,0,1-9,26,58.73,58.73,0,0,1-23,23.15c-10.13,5.79-21.21,8.8-32.44,11.32a78.6,78.6,0,0,1-24.19,1.36c-14-1.27-25.88-7.24-34.89-18.07A72.57,72.57,0,0,1,473,691.76q-1.46-9.57-2.28-19.23-.93-10.74-1.39-21.49-.63-13.65-.92-27.29c-.25-11.19-.32-22.37-.48-33.56v-.42c-5.69,3.41-11.28,7.15-17.21,10.22a57.06,57.06,0,0,1-22.31,6.29,119.36,119.36,0,0,1-18.43.4c-10-.8-20-2.37-28.94-7.29-3.63-2-7.42-4.43-9.92-7.63-6-7.65-3.12-17.32,5.92-22,6.25-3.22,13.07-4.56,19.84-6.13q8.85-2,17.48-4.78c5.68-1.86,9.27-6.47,12.8-11l5.61-7.21c-2.34-.24-4.54-.49-6.75-.7a61.7,61.7,0,0,1-19.17-5.18c-5.23-2.31-5.3-2.56-9.13,1.6-6.4,6.94-12.62,14-18.89,21.11-4.61,5.19-9.19,10.42-13.78,15.62s-8.8,10.6-13.7,15.39c-7.27,7.12-16,11.4-26.49,10.91a34.61,34.61,0,0,1-18.37-6.5c-11.39-7.94-19.07-19-26.06-30.71-9-14.94-15.84-30.86-21.72-47.22-4.07-11.3-8.16-22.62-11.72-34.09-3.86-12.46-7.25-25.08-10.58-37.7q-3.72-14.3-6.89-28.73-3.69-16.41-6.81-32.91c-1.38-7.43-2.19-15-3.31-22.45a150.79,150.79,0,0,1-1.24-30.4c.49-9.13,1.8-18.23,3.1-27.29a108.32,108.32,0,0,1,11.85-35.51A93.72,93.72,0,0,1,246.46,247c8.58-9.49,19-16.35,30.51-21.5,8.07-3.62,16.59-5.78,25.33-7.5,12.9-2.51,25.91-2.41,38.92-2.14,5.69.12,11.36,1.15,17,1.72a223.49,223.49,0,0,1,36.08,7c8.64,2.31,17.09,5.31,25.65,7.91a3.85,3.85,0,0,0,2.83-.22A106.09,106.09,0,0,1,476.18,215a156.44,156.44,0,0,1,19.12-.42c7.63.44,15.22,1.56,22.81,2.61,3.68.5,7.28,1.78,11,2.12,1.76.17,3.64-1.12,5.5-1.55,9.53-2.2,19-4.65,28.62-6.39A180,180,0,0,1,584.94,209a232.92,232.92,0,0,1,24.36-.41,170.06,170.06,0,0,1,30.47,4.29,152.83,152.83,0,0,1,35.72,12.94A121.57,121.57,0,0,1,699.3,241.5a179.2,179.2,0,0,1,13.92,12.65c5.3,5.61,10.7,11.22,14,18.4A50.33,50.33,0,0,1,732,289.5c.61,7.38,1.35,14.78,1.28,22.16-.06,7.06-1,14.12-1.71,21.16-1.55,16.05-5,31.76-9.28,47.26q-5.31,19.21-12,38c-4.08,11.53-8.79,22.85-13.56,34.13q-5.25,12.51-11.43,24.63c-7.79,15.28-15.9,30.39-25.27,44.78-1.62,2.49-3.16,5-4.74,7.57,4.09,2.76,8.73,3.73,13.4,4.24a74.1,74.1,0,0,0,13.4.44c7.1-.53,14.17-1.54,21.23-2.53s13.84-3,21-2.44,12.29,6,11.8,12.68ZM752,537c-2.09-13.56-13.48-22.45-26.73-23a83.19,83.19,0,0,0-14.45.9c-5.78.73-11.49,2-17.26,2.89-4,.6-8,.87-12,1.28l-.1-.52c7.43-14,15.17-27.9,22.2-42.13,5.39-10.91,10-22.22,14.76-33.44a431,431,0,0,0,19.4-57.22c5-18.64,9.28-37.49,10.62-56.83.54-7.73.91-15.49.87-23.22A185.1,185.1,0,0,0,748,287.2,63.28,63.28,0,0,0,742.23,267c-3.93-8.48-9.93-15.43-16.26-22-5.07-5.32-10.67-10.14-16.19-14.95a135.37,135.37,0,0,0-26-17.21,148,148,0,0,0-32.94-12.78c-6.94-1.77-14-3.09-21.07-4.49-2.53-.51-5.06-1.57-7.59-1.57H574.57c-1.72,0-3.42.89-5.16,1.08a180.77,180.77,0,0,0-33.59,6.81c-4.09,1.27-7.83.47-11.72.11-3-.27-5.91-1.07-8.89-1.22-11.35-.57-22.71-1.4-34.06-1.28A122.09,122.09,0,0,0,449,204.43c-8.81,2.5-17.42,5.55-25.32,10.18-3.38,2-6.05,1.61-9.55.6-11.75-3.39-23.58-6.57-35.51-9.24a197,197,0,0,0-22.68-3.29Q345,201.54,334,201.31a194.69,194.69,0,0,0-21.47.49,139.75,139.75,0,0,0-33.27,7,109.67,109.67,0,0,0-33,18,101.57,101.57,0,0,0-24.63,28.82,129.35,129.35,0,0,0-14.46,37.47c-1.58,7.14-2.58,14.49-3.66,21.74-.34,2.26,3.4,4.52-1.25,6.77v31.58c4.65,2.1,1,4.2,1.24,6.31.64,5.06,1.21,10.16,2.07,15.19,1.35,8,3,15.88,4.59,23.78q3.41,16.57,7.19,33.06c1.84,8,3.94,15.94,6.13,23.85,3.35,12.08,6.65,24.18,10.44,36.12,3.52,11.09,7.55,22,11.55,33a292.88,292.88,0,0,0,20.11,43.81c6.88,12.15,14.73,23.53,25.27,32.89,6.94,6.17,14.68,10.91,23.67,13.28a46.78,46.78,0,0,0,21.5.6,51.05,51.05,0,0,0,22.42-10.74c.76-.63,1.59-1.1,2.49,0,3.42,4.33,8,7.22,12.77,9.71,12.91,6.74,27,8.75,41.27,9.58,3.46.2,6.95-.3,10.44-.4a79.52,79.52,0,0,0,19.85-3.38c3.41-1,6.73-2.23,10.19-3.4.18,3.69.42,7.24.52,10.79l.49,19.36c.09,2.95.2,5.91.48,8.84.7,7.56,1.39,15.13,2.29,22.67a138,138,0,0,0,2.5,15.51,177.43,177.43,0,0,0,10,29.88,64.27,64.27,0,0,0,18.13,24.1c10.32,8.53,22.41,12.17,35.48,12.85a71,71,0,0,0,16.27-1,225.32,225.32,0,0,0,25-5.93c16.69-5,31.12-13.74,41.9-27.8A91.13,91.13,0,0,0,623,699.51c2.67-7.91,5.19-15.9,7.18-24,1.58-6.38,2.37-13,3.33-19.47.63-4.31,1-8.66,1.42-13,.65-7,1.31-14.1,1.78-21.16.33-4.92.31-9.86.51-14.79.06-1.5.3-3,.44-4.49s.83-1.86,2.24-1.84c5,.07,10,.2,14.93,0a140.73,140.73,0,0,0,16.66-1.41q11.7-2,23.19-5c9-2.36,17.32-6.59,25.29-11.41,9.29-5.61,17.75-12.19,24.62-20.67,6-7.4,8.81-15.95,7.36-25.28Z"/></g></g></g></g></svg>