<svg xmlns="http://www.w3.org/2000/svg" viewBox="0 0 540.99 567.11"><defs><style>.cls-1{fill:#edeef7;}</style></defs><title>powerbi</title><g id="Camada_2" data-name="Camada 2"><g id="Camada_1-2" data-name="Camada 1"><path class="cls-1" d="M172.52,454.9c0,18.42-15.08,35.17-35.18,35.17S102.17,475,102.17,454.9V304.15c0-18.42,15.07-35.17,35.17-35.17s35.18,15.07,35.18,35.17ZM273,495.09c0,18.43-15.07,35.18-35.17,35.18s-33.5-15.08-33.5-35.18V265.63c0-18.42,15.07-35.17,35.17-35.17s35.17,15.07,35.17,35.17V495.09ZM70.35,421.4c0,18.42-15.08,35.17-35.18,35.17S0,441.5,0,421.4V339.33c0-18.43,15.07-35.18,35.17-35.18s35.18,16.75,35.18,35.18ZM373.5,531.94c0,18.42-15.07,35.17-35.17,35.17-18.42,0-33.5-16.75-33.5-35.17V227.11c0-18.43,15.08-35.17,35.18-35.17,18.42,0,35.17,15.07,35.17,35.17V531.94Z"/><path class="cls-1" d="M484.05,516.87c-6.7,0-11.73-1.68-18.43-3.35l-41.87-13.4c-6.7-1.68-11.72-10.05-8.37-16.75,1.67-6.7,10.05-11.73,16.75-8.38l43.54,13.4c8.38,3.35,18.43,1.68,26.8-5,8.38-5,11.73-15.08,11.73-23.45V180.21c0-13.4-8.38-25.12-20.1-28.47L83.75,27.79c-8.38-3.35-18.43-1.67-26.8,3.35-6.7,6.7-11.73,15.08-11.73,25.13V248.88a13.21,13.21,0,0,1-13.4,13.4,13.21,13.21,0,0,1-13.4-13.4V56.27c0-18.43,8.38-35.18,23.45-45.22C57-.68,75.37-2.35,92.12,2.67L500.8,126.61c23.45,6.7,40.19,30.15,40.19,55.28v279.7c0,18.43-8.37,35.18-23.44,46.9-10,3.35-21.78,8.38-33.5,8.38"/></g></g></svg>