<svg xmlns="http://www.w3.org/2000/svg" viewBox="0 0 954.59 954.59"><defs><style>.cls-1{fill:#161b22;}.cls-2{fill:#edeef7;}</style></defs><title>powerbi_</title><g id="Camada_2" data-name="Camada 2"><g id="Camada_1-2" data-name="Camada 1"><g id="powerbi_"><rect class="cls-1" width="954.59" height="954.59" rx="477.29"/><g id="Camada_1-2-2" data-name="Camada 1-2"><path class="cls-2" d="M379.32,648.64c0,18.42-15.08,35.17-35.18,35.17S309,668.74,309,648.64V497.89c0-18.42,15.07-35.17,35.17-35.17s35.18,15.07,35.18,35.17ZM479.8,688.83c0,18.43-15.07,35.18-35.17,35.18s-33.5-15.08-33.5-35.18V459.37c0-18.42,15.07-35.17,35.17-35.17s35.17,15.07,35.17,35.17V688.83ZM277.15,615.14c0,18.42-15.08,35.17-35.18,35.17s-35.17-15.07-35.17-35.17V533.07c0-18.43,15.07-35.18,35.17-35.18s35.18,16.75,35.18,35.18ZM580.3,725.68c0,18.42-15.07,35.17-35.17,35.17-18.42,0-33.5-16.75-33.5-35.17V420.85c0-18.43,15.08-35.17,35.18-35.17,18.42,0,35.17,15.07,35.17,35.17V725.68Z"/><path class="cls-2" d="M690.85,710.61c-6.7,0-11.73-1.68-18.43-3.35l-41.87-13.4c-6.7-1.68-11.72-10.05-8.37-16.75,1.67-6.7,10.05-11.73,16.75-8.38l43.54,13.4c8.38,3.35,18.43,1.68,26.8-5,8.38-5,11.73-15.08,11.73-23.45V374c0-13.4-8.38-25.12-20.1-28.47l-410.35-124c-8.38-3.35-18.43-1.67-26.8,3.35C257.05,231.58,252,240,252,250V442.62A13.21,13.21,0,0,1,239,456h-.38a13.22,13.22,0,0,1-13.4-13V250c0-18.43,8.38-35.18,23.45-45.22,15.13-11.73,33.5-13.4,50.25-8.38L707.6,320.35c23.45,6.7,40.19,30.15,40.19,55.28v279.7c0,18.43-8.37,35.18-23.44,46.9-10,3.35-21.78,8.38-33.5,8.38"/></g></g></g></g></svg>