<svg xmlns="http://www.w3.org/2000/svg" viewBox="0 0 562.62 568.83"><defs><style>.cls-1{fill:#edeef7;}</style></defs><title>python</title><g id="Camada_2" data-name="Camada 2"><g id="Camada_1-2" data-name="Camada 1"><path class="cls-1" d="M357.2,472.29a25.86,25.86,0,1,1-25.47,25.79A25.61,25.61,0,0,1,357.2,472.29Zm195-258.48C542.47,174.54,523.85,145,484.36,145H434.71V205.3c0,46.72-40.88,83.76-86,83.76H213.12c-37.14,0-66.62,34.06-66.62,71.25V489.53c0,36.77,31.36,58.4,67.23,69,43,12.63,83.64,14.91,135,0,34.16-9.9,67.34-29.8,67.34-69V437.81H281.31V419.22H484.36c39.44,0,54.14-26.85,67.86-68.15,14.17-42.51,13.56-82.73,0-137.26ZM204.57,93.32A25.86,25.86,0,1,1,230,67.54,25.61,25.61,0,0,1,204.57,93.32Zm8.55,181.8H348.66c37.73,0,67.45-31.93,67.45-69.82V76.09c0-36.78-30.83-64.41-67.66-70.55A421.7,421.7,0,0,0,277.86,0a379.28,379.28,0,0,0-64.17,5.54C156.26,15.68,146.5,36.92,146.5,76.09v50.28H281.31V145h-187c-39.44,0-74,23.75-84.77,68.85-12.47,51.69-13,83.3,0,137.27,9.64,40.17,32.67,68.14,72.12,68.14h46.23V358.57C127.91,313.77,167.09,275.12,213.12,275.12Z"/></g></g></svg>