<svg xmlns="http://www.w3.org/2000/svg" viewBox="0 0 954.59 954.59"><defs><style>.cls-1{fill:#161b22;}.cls-2{fill:#edeef7;}</style></defs><title>python_</title><g id="Camada_2" data-name="Camada 2"><g id="Camada_1-2" data-name="Camada 1"><g id="python_"><rect class="cls-1" width="954.59" height="954.59" rx="477.29"/><g id="Camada_1-2-2" data-name="Camada 1-2"><path class="cls-2" d="M553.19,665.15a25.86,25.86,0,1,1-25.47,26.25v-.46a25.62,25.62,0,0,1,25.43-25.79Zm195-258.48c-9.73-39.27-28.35-68.81-67.84-68.81H630.7v60.3c0,46.72-40.88,83.76-86,83.76H409.11c-37.14,0-66.62,34.06-66.62,71.25V682.39c0,36.77,31.36,58.4,67.23,69,43,12.63,83.64,14.91,135,0,34.16-9.9,67.34-29.8,67.34-69V630.67H477.3V612.08H680.35c39.44,0,54.14-26.85,67.86-68.15,14.17-42.51,13.56-82.73,0-137.26ZM400.56,286.18A25.86,25.86,0,1,1,426,259.89v.51A25.61,25.61,0,0,1,400.56,286.18ZM409.11,468H544.65c37.73,0,67.45-31.93,67.45-69.82V269c0-36.78-30.83-64.41-67.66-70.55a422.54,422.54,0,0,0-70.59-5.54,379.21,379.21,0,0,0-64.17,5.54c-57.43,10.14-67.19,31.38-67.19,70.55v50.28H477.3v18.63h-187c-39.44,0-74,23.75-84.77,68.85-12.47,51.69-13,83.3,0,137.27,9.64,40.17,32.67,68.14,72.12,68.14h46.23V551.43c0-44.8,39.2-83.45,85.23-83.45Z"/></g></g></g></g></svg>