<svg xmlns="http://www.w3.org/2000/svg" viewBox="0 0 595 458.83"><defs><style>.cls-1,.cls-2{fill:#edeef7;}.cls-2{fill-rule:evenodd;}</style></defs><title>R</title><g id="Camada_2" data-name="Camada 2"><g id="Camada_1-2" data-name="Camada 1"><path class="cls-1" d="M390.93,348.08c-12.14,1.19-24.74,1.91-37.71,2.15V395a410.3,410.3,0,0,0,58-11.58L408.88,379c-3.16-5.89-6.26-11.82-9.45-17.69q-4-6.81-8.5-13.26ZM297.5,0C133.2,0,0,89.21,0,199.25c0,96.52,102.48,177,238.54,195.32V334.93c-72.28-22.73-121.63-68.3-121.63-120.82C116.91,138.89,218.15,77.9,343,77.9s217.05,41.72,217.05,136.21c0,48.75-24.52,83.44-65.39,105.61a46.41,46.41,0,0,1,13.5,15.9l1.8,3c52.58-35.93,85-85.12,85-139.41C595,89.21,461.8,0,297.5,0Z"/><path class="cls-2" d="M408.93,196.41l-61.44,0,0,57,61.47,0s28.47-.09,28.47-29c0-29.47-28.47-27.94-28.47-27.94Zm44.15,112.2s18,5.43,28.47,10.72c3.62,1.84,9.91,5.5,14.43,10.32a38.4,38.4,0,0,1,6.6,9.48l71,119.65-114.7.05L405.22,358.12s-11-18.88-17.74-24.35c-5.64-4.56-8-6.19-13.62-6.19H346.62V458.76l-101.49,0V123.72H449s92.83,1.68,92.83,90-88.7,94.89-88.7,94.89Z"/></g></g></svg>