<svg xmlns="http://www.w3.org/2000/svg" viewBox="0 0 954.59 954.59"><defs><style>.cls-1{fill:#161b22;}.cls-2,.cls-3{fill:#edeef7;}.cls-3{fill-rule:evenodd;}</style></defs><title>r_</title><g id="Camada_2" data-name="Camada 2"><g id="Camada_1-2" data-name="Camada 1"><g id="r_"><rect class="cls-1" width="954.59" height="954.59" rx="477.29"/><g id="Camada_1-2-2" data-name="Camada 1-2"><path class="cls-2" d="M570.75,596c-12.14,1.19-24.74,1.91-37.71,2.15v44.77a410.58,410.58,0,0,0,58-11.58l-2.34-4.42c-3.16-5.89-6.26-11.82-9.45-17.69q-4-6.81-8.5-13.26ZM477.32,247.88c-164.3,0-297.5,89.21-297.5,199.25,0,96.52,102.48,177,238.54,195.32V582.81C346.08,560.08,296.73,514.51,296.73,462c0-75.22,101.24-136.21,226.09-136.21s217,41.72,217,136.21c0,48.75-24.52,83.44-65.39,105.61A46.54,46.54,0,0,1,688,583.5l1.8,3c52.58-35.93,85-85.12,85-139.41C774.82,337.09,641.62,247.88,477.32,247.88Z"/><path class="cls-3" d="M588.75,444.29H527.31v57h61.47s28.47-.09,28.47-29c0-29.47-28.47-27.94-28.47-27.94Zm44.15,112.2s18,5.43,28.47,10.72c3.62,1.84,9.91,5.5,14.43,10.32a38.67,38.67,0,0,1,6.6,9.48l71,119.65-114.7.05L585,606s-11-18.88-17.74-24.35c-5.64-4.56-8-6.19-13.62-6.19H526.44V706.64H425v-335H628.82s92.83,1.68,92.83,90S633,556.49,633,556.49Z"/></g></g></g></g></svg>