<svg xmlns="http://www.w3.org/2000/svg" viewBox="0 0 37.55 20.48"><defs><style>.cls-1{fill:#edeef7;}</style></defs><title>VBA</title><g id="Camada_2" data-name="Camada 2"><g id="Camada_1-2" data-name="Camada 1"><path class="cls-1" d="M37.55,13.15h-.14c0-.94,0-1.88,0-2.83A.64.64,0,0,0,37,9.67l-6.74-3.2a1,1,0,0,0-1,0c-.78.36-1.57.7-2.36,1s-.7.28-.71-.42c0-1.05,0-2.11,0-3.16a.6.6,0,0,0-.4-.62c-2.33-1.06-4.64-2.13-7-3.2a.77.77,0,0,0-.68,0Q14.72,1.51,11.34,2.9a.66.66,0,0,0-.48.72c0,1,0,2.11,0,3.16,0,.59,0,.61-.54.37C9.54,6.78,8.74,6.41,8,6a.75.75,0,0,0-.71,0Q3.93,7.48.61,8.88a.77.77,0,0,0-.56.81C0,11.45.11,13.2,0,15c0,.37.06.61.49.63.12,0,.23.1.35.16C3.08,17,5.33,18.17,7.57,19.4a.82.82,0,0,0,.84,0c1.38-.7,2.77-1.36,4.15-2.06a1,1,0,0,1,1,0c1.7,1,3.43,1.9,5.12,2.89a1.33,1.33,0,0,0,1.46,0c1.66-.91,3.35-1.76,5-2.64a.5.5,0,0,1,.54,0c1.22.66,2.45,1.29,3.65,2a1.35,1.35,0,0,0,1.46,0c2.1-1.07,4.23-2.1,6.35-3.13a.56.56,0,0,0,.35-.6C37.54,15,37.55,14.08,37.55,13.15ZM25.46,4.76c0,1.45,0,2.9,0,4.35,0,.43-.21.58-.58.41C23.7,9,22.54,8.44,21.37,7.89a1.39,1.39,0,0,0-.63-.4c-.62-.31-.62-.31-.14-.76Q22.82,5.62,25,4.49C25.31,4.35,25.47,4.4,25.46,4.76ZM18,.76a.79.79,0,0,1,.69,0L24.05,3.3c.33.18.54.36,0,.57-.08,0-.13.12-.2.19L19.27,6.42a.67.67,0,0,1-.67,0c-1.21-.61-2.43-1.2-3.65-1.8a4,4,0,0,0-1.15-.57l-.29-.19-.59-.35c-.16-.1-.4-.14-.37-.42ZM12,4.13l5.2,2.52a2.31,2.31,0,0,1,.35.18c.17.12.52.09.5.34s-.32.22-.5.3l-3,1.27c-.13.06-.27.09-.41.14a2.83,2.83,0,0,1-.41-.14c-.57-.27-1.14-.57-1.72-.82a.59.59,0,0,1-.42-.62c0-1,0-2,0-3C11.54,3.91,11.77,4,12,4.13Zm-4.28,14c0,.31-.17.3-.38.19l-1.27-.67c-1.61-.87-3.22-1.75-4.84-2.6a.86.86,0,0,1-.56-.93c0-.59,0-1.18,0-1.77h0c0-.67,0-1.34,0-2,0-.35.13-.38.4-.24l6.11,2.95a.73.73,0,0,1,.48.68C7.8,15.24,7.73,16.7,7.73,18.17Zm.58-5.61-.23,0a1.74,1.74,0,0,1-.32-.11l-6-3c-.13-.06-.35-.08-.33-.28s.22-.17.34-.22L7.1,6.81a.87.87,0,0,1,.77,0C9.44,7.57,11,8.29,12.6,9c.13.06.34.07.33.28s-.19.2-.32.25-.41.17-.63.24a.63.63,0,0,0-.49.71.5.5,0,0,1-.26.53ZM12,16.9,9.13,18.32c-.35.18-.5.05-.5-.33,0-1.4-.06-2.8-.1-4.2a.67.67,0,0,1,.4-.69c.73-.36,1.45-.73,2.17-1.12.27-.14.38-.06.39.23V14h0c0,.54,0,1.08,0,1.62a.77.77,0,0,0,.46.85C12.26,16.63,12.22,16.77,12,16.9Zm7.23,0h0v2.25c0,.29-.09.43-.4.26L12.53,16a.66.66,0,0,1-.37-.66c0-1.33,0-2.65,0-4,0-.52,0-.55.5-.33,2.06,1,4.11,2,6.17,3a.6.6,0,0,1,.34.62C19.17,15.39,19.18,16.12,19.18,16.86ZM19,13.36c-1.6-.79-3.21-1.56-4.82-2.33l-1-.47c-.23-.19-.28-.35.07-.47a1.43,1.43,0,0,0,.3-.2l4.89-2.06a.94.94,0,0,1,.82,0l5.55,2.58c.14.06.36.08.35.27s-.2.18-.32.24l-5,2.44A.83.83,0,0,1,19,13.36Zm6.66,3.4c-1.73.81-3.45,1.64-5.17,2.47-.33.16-.47.11-.48-.27C20,17.49,20,16,20,14.56a.51.51,0,0,1,.32-.53c1.74-.87,3.48-1.73,5.22-2.61.36-.18.48-.1.47.3,0,.73,0,1.46,0,2.2h.1c0,.73,0,1.46,0,2.2A.6.6,0,0,1,25.7,16.76Zm4.11-.49v2.11c0,.27-.07.46-.39.29l-2.65-1.43a.22.22,0,0,1-.13-.31,4.18,4.18,0,0,0,.17-1.79,22.07,22.07,0,0,0,0-2.3c0-.53.07-.59.52-.36.7.34,1.4.7,2.11,1a.65.65,0,0,1,.43.67C29.81,14.87,29.81,15.57,29.81,16.27Zm0-3.49-2.66-1.31a.64.64,0,0,1-.41-.64.6.6,0,0,0-.34-.63c-.17-.08-.18-.22-.17-.4.06-1.32,0-1.34,1.25-1.85.59-.25,1.19-.47,1.77-.74a.86.86,0,0,1,.78,0c1.83.86,3.67,1.7,5.51,2.55.25.3-.06.4-.19.57l-4.68,2.4A.85.85,0,0,1,29.82,12.78Zm6.42,3.39c-1,.48-1.93,1-2.89,1.48a5.53,5.53,0,0,0-1.92,1c-.58.17-.59.17-.59-.43,0-1.34,0-2.68,0-4a.69.69,0,0,1,.4-.69l5-2.57c.45-.23.5-.2.51.32,0,1.38,0,2.77,0,4.16A.74.74,0,0,1,36.24,16.17Z"/><path class="cls-1" d="M37.55,13.15h-.14c0-.94,0-1.88,0-2.83A.64.64,0,0,0,37,9.67l-6.74-3.2a1,1,0,0,0-1,0c-.78.36-1.57.7-2.36,1s-.7.28-.71-.42c0-1.05,0-2.11,0-3.16a.6.6,0,0,0-.4-.62c-2.33-1.06-4.64-2.13-7-3.2a.77.77,0,0,0-.68,0Q14.72,1.51,11.34,2.9a.66.66,0,0,0-.48.72c0,1,0,2.11,0,3.16,0,.59,0,.61-.54.37C9.54,6.78,8.74,6.41,8,6a.75.75,0,0,0-.71,0Q3.93,7.48.61,8.88a.77.77,0,0,0-.56.81C0,11.45.11,13.2,0,15c0,.37.06.61.49.63.12,0,.23.1.35.16C3.08,17,5.33,18.17,7.57,19.4a.82.82,0,0,0,.84,0c1.38-.7,2.77-1.36,4.15-2.06a1,1,0,0,1,1,0c1.7,1,3.43,1.9,5.12,2.89a1.33,1.33,0,0,0,1.46,0c1.66-.91,3.35-1.76,5-2.64a.5.5,0,0,1,.54,0c1.22.66,2.45,1.29,3.65,2a1.35,1.35,0,0,0,1.46,0c2.1-1.07,4.23-2.1,6.35-3.13a.56.56,0,0,0,.35-.6C37.54,15,37.55,14.08,37.55,13.15ZM25.46,4.76c0,1.45,0,2.9,0,4.35,0,.43-.21.58-.58.41C23.7,9,22.54,8.44,21.37,7.89a1.39,1.39,0,0,0-.63-.4c-.62-.31-.62-.31-.14-.76Q22.82,5.62,25,4.49C25.31,4.35,25.47,4.4,25.46,4.76ZM18,.76a.79.79,0,0,1,.69,0L24.05,3.3c.33.18.54.36,0,.57-.08,0-.13.12-.2.19L19.27,6.42a.67.67,0,0,1-.67,0c-1.21-.61-2.43-1.2-3.65-1.8a4,4,0,0,0-1.15-.57l-.29-.19-.59-.35c-.16-.1-.4-.14-.37-.42ZM12,4.13l5.2,2.52a2.31,2.31,0,0,1,.35.18c.17.12.52.09.5.34s-.32.22-.5.3l-3,1.27c-.13.06-.27.09-.41.14a2.83,2.83,0,0,1-.41-.14c-.57-.27-1.14-.57-1.72-.82a.59.59,0,0,1-.42-.62c0-1,0-2,0-3C11.54,3.91,11.77,4,12,4.13Zm-4.28,14c0,.31-.17.3-.38.19l-1.27-.67c-1.61-.87-3.22-1.75-4.84-2.6a.86.86,0,0,1-.56-.93c0-.59,0-1.18,0-1.77h0c0-.67,0-1.34,0-2,0-.35.13-.38.4-.24l6.11,2.95a.73.73,0,0,1,.48.68C7.8,15.24,7.73,16.7,7.73,18.17Zm.58-5.61-.23,0a1.74,1.74,0,0,1-.32-.11l-6-3c-.13-.06-.35-.08-.33-.28s.22-.17.34-.22L7.1,6.81a.87.87,0,0,1,.77,0C9.44,7.57,11,8.29,12.6,9c.13.06.34.07.33.28s-.19.2-.32.25-.41.17-.63.24a.63.63,0,0,0-.49.71.5.5,0,0,1-.26.53ZM12,16.9,9.13,18.32c-.35.18-.5.05-.5-.33,0-1.4-.06-2.8-.1-4.2a.67.67,0,0,1,.4-.69c.73-.36,1.45-.73,2.17-1.12.27-.14.38-.06.39.23V14h0c0,.54,0,1.08,0,1.62a.77.77,0,0,0,.46.85C12.26,16.63,12.22,16.77,12,16.9Zm7.23,0h0v2.25c0,.29-.09.43-.4.26L12.53,16a.66.66,0,0,1-.37-.66c0-1.33,0-2.65,0-4,0-.52,0-.55.5-.33,2.06,1,4.11,2,6.17,3a.6.6,0,0,1,.34.62C19.17,15.39,19.18,16.12,19.18,16.86ZM19,13.36c-1.6-.79-3.21-1.56-4.82-2.33l-1-.47c-.23-.19-.28-.35.07-.47a1.43,1.43,0,0,0,.3-.2l4.89-2.06a.94.94,0,0,1,.82,0l5.55,2.58c.14.06.36.08.35.27s-.2.18-.32.24l-5,2.44A.83.83,0,0,1,19,13.36Zm6.66,3.4c-1.73.81-3.45,1.64-5.17,2.47-.33.16-.47.11-.48-.27C20,17.49,20,16,20,14.56a.51.51,0,0,1,.32-.53c1.74-.87,3.48-1.73,5.22-2.61.36-.18.48-.1.47.3,0,.73,0,1.46,0,2.2h.1c0,.73,0,1.46,0,2.2A.6.6,0,0,1,25.7,16.76Zm4.11-.49v2.11c0,.27-.07.46-.39.29l-2.65-1.43a.22.22,0,0,1-.13-.31,4.18,4.18,0,0,0,.17-1.79,22.07,22.07,0,0,0,0-2.3c0-.53.07-.59.52-.36.7.34,1.4.7,2.11,1a.65.65,0,0,1,.43.67C29.81,14.87,29.81,15.57,29.81,16.27Zm0-3.49-2.66-1.31a.64.64,0,0,1-.41-.64.6.6,0,0,0-.34-.63c-.17-.08-.18-.22-.17-.4.06-1.32,0-1.34,1.25-1.85.59-.25,1.19-.47,1.77-.74a.86.86,0,0,1,.78,0c1.83.86,3.67,1.7,5.51,2.55.25.3-.06.4-.19.57l-4.68,2.4A.85.85,0,0,1,29.82,12.78Zm6.42,3.39c-1,.48-1.93,1-2.89,1.48a5.53,5.53,0,0,0-1.92,1c-.58.17-.59.17-.59-.43,0-1.34,0-2.68,0-4a.69.69,0,0,1,.4-.69l5-2.57c.45-.23.5-.2.51.32,0,1.38,0,2.77,0,4.16A.74.74,0,0,1,36.24,16.17Z"/><path class="cls-1" d="M13.23,10.56c-.11-.1-.34-.09-.33-.28s.25-.13.37-.23.23-.08.33-.16a1.43,1.43,0,0,1-.3.2C13,10.21,13,10.37,13.23,10.56Z"/><path class="cls-1" d="M12.92,3.51l.59.35a4.31,4.31,0,0,1-.95-.5c-.16-.11-.15-.17,0-.27C12.52,3.37,12.76,3.41,12.92,3.51Z"/><path class="cls-1" d="M13.8,4.05A4,4,0,0,1,15,4.62,8.2,8.2,0,0,1,13.8,4.05Z"/><path class="cls-1" d="M24.54,3.61c0,.17-.23.17-.35.25a2.23,2.23,0,0,0-.33.2c.07-.07.12-.16.2-.19.53-.21.32-.39,0-.57a.32.32,0,0,0,.09,0C24.3,3.39,24.53,3.42,24.54,3.61Z"/><path class="cls-1" d="M35.36,10.37c.13-.17.44-.27.19-.57C35.91,10.09,35.9,10.1,35.36,10.37Z"/><path class="cls-1" d="M33.35,17.65c-.67.26-1.27.66-1.92,1A5.53,5.53,0,0,1,33.35,17.65Z"/><path class="cls-1" d="M21.37,7.89a6.79,6.79,0,0,0-1.15-.56c-.08,0-.2-.06-.21-.17s.1-.15.18-.19a2.1,2.1,0,0,0,.41-.24c-.48.45-.48.45.14.76A1.39,1.39,0,0,1,21.37,7.89Z"/><path class="cls-1" d="M21.37,7.89l-1.21-.51c-.11,0-.26-.08-.26-.24s.16-.18.27-.23.29-.12.43-.18c-.48.45-.48.45.14.76A1.39,1.39,0,0,1,21.37,7.89Z"/><path class="cls-1" d="M33.35,17.65a8.25,8.25,0,0,1-1.92,1A5.53,5.53,0,0,1,33.35,17.65Z"/><path class="cls-1" d="M13.51,3.86a2.39,2.39,0,0,1-1-.44c-.2-.12-.27-.25,0-.33,0,.28.21.32.37.42Z"/><path class="cls-1" d="M24.63,3.6c0,.18-.18.2-.3.26s-.31.13-.47.2c.07-.07.12-.16.2-.19.53-.21.32-.39,0-.57a.81.81,0,0,1,.27.05C24.45,3.4,24.62,3.44,24.63,3.6Z"/><path class="cls-1" d="M35.93,10.05c0,.26-.33.3-.57.32.13-.17.44-.27.19-.57C35.72,9.83,36,9.82,35.93,10.05Z"/><path class="cls-1" d="M13.23,10.56c-.17,0-.38-.06-.4-.26s.23-.22.37-.29a3,3,0,0,1,.4-.12,1.43,1.43,0,0,1-.3.2C13,10.21,13,10.37,13.23,10.56Z"/><path class="cls-1" d="M15,4.62a2,2,0,0,1-1.15-.57A4,4,0,0,1,15,4.62Z"/></g></g></svg>