<svg xmlns="http://www.w3.org/2000/svg" viewBox="0 0 954.59 954.59"><defs><style>.cls-1{fill:#161b22;}.cls-2{fill:#edeef7;}</style></defs><title>vba_</title><g id="Camada_2" data-name="Camada 2"><g id="Camada_1-2" data-name="Camada 1"><g id="vba_"><rect class="cls-1" width="954.59" height="954.59" rx="477.29"/><g id="Camada_1-2-2" data-name="Camada 1-2"><path class="cls-2" d="M861.85,537.32H859v-58A13.1,13.1,0,0,0,850.59,466L712.53,400.5a20.47,20.47,0,0,0-20.48,0c-16,7.37-32.16,14.33-48.34,20.48s-14.33,5.73-14.54-8.61V347.65A12.29,12.29,0,0,0,621,335c-47.73-21.71-95-43.63-143.38-65.54a15.78,15.78,0,0,0-13.93,0q-69.43,29.49-138.66,58a13.53,13.53,0,0,0-9.83,14.75v64.72c0,12.09,0,12.5-11.06,7.58-16-7.58-32.36-15.15-47.52-23.55a15.36,15.36,0,0,0-14.54,0q-68.82,30.31-136.83,59a15.78,15.78,0,0,0-11.47,16.59c-1,36.05,1.23,71.89-1,108.76,0,7.58,1.23,12.49,10,12.9,2.45,0,4.71,2,7.16,3.28,45.89,24.78,92,48.75,137.85,73.94a16.81,16.81,0,0,0,17.21,0c28.26-14.34,56.73-27.85,85-42.19a20.47,20.47,0,0,1,20.48,0c34.82,20.48,70.25,38.91,104.87,59.19a27.24,27.24,0,0,0,29.9,0c34-18.64,68.62-36.05,102.41-54.07a10.27,10.27,0,0,1,11.07,0c25,13.52,50.18,26.42,74.76,41a27.62,27.62,0,0,0,29.9,0c43-21.91,86.64-43,130.06-64.11a11.46,11.46,0,0,0,7.17-12.29C861.65,575.21,861.85,556.37,861.85,537.32ZM614.22,365.47v89.1c0,8.81-4.3,11.88-11.88,8.4-24.17-10.65-47.93-22.12-71.89-33.39a28.44,28.44,0,0,0-12.91-8.19c-12.7-6.35-12.7-6.35-2.86-15.57q45.47-22.74,90.12-45.88C611.15,357.07,614.42,358.1,614.22,365.47Zm-152.8-81.93a16.22,16.22,0,0,1,14.13,0l109.79,52c6.76,3.68,11.06,7.37,0,11.67-1.64,0-2.66,2.46-4.1,3.89l-93.81,48.34a13.72,13.72,0,0,1-13.72,0C448.93,387,423.94,374.89,399,362.6a82.13,82.13,0,0,0-23.55-11.67L369.46,347l-12.09-7.17c-3.28-2.05-8.19-2.87-7.58-8.61Zm-122.89,69L445,404.18a47,47,0,0,1,7.16,3.69c3.49,2.46,10.66,1.84,10.25,7s-6.56,4.51-10.25,6.15l-61.44,26c-2.67,1.23-5.53,1.84-8.4,2.87A57.76,57.76,0,0,1,374,447c-11.67-5.53-23.35-11.67-35.23-16.8a12.07,12.07,0,0,1-8.6-12.69V356.05C329.11,348.06,333.82,349.9,338.53,352.57ZM250.86,639.32c0,6.35-3.48,6.14-7.78,3.89l-26-13.72c-33-17.82-66-35.85-99.14-53.26a17.62,17.62,0,0,1-11.47-19.05V520.93h0V480c0-7.17,2.67-7.79,8.2-4.92L239.8,535.47a15,15,0,0,1,9.83,13.93c2.87,30.73,1.44,60.63,1.44,90.74Zm11.88-114.91H258a35.19,35.19,0,0,1-6.55-2.25l-122.9-61.45c-2.66-1.23-7.17-1.64-6.76-5.73s4.51-3.48,7-4.51l109.37-43a17.86,17.86,0,0,1,15.78,0c32.15,15.57,64.11,30.31,96.88,44.86,2.66,1.22,7,1.43,6.76,5.73s-3.9,4.1-6.56,5.12-8.4,3.48-12.9,4.92a12.9,12.9,0,0,0-10,14.54,10.23,10.23,0,0,1-5.32,10.85Zm75.79,89.72-58.79,29.08c-7.17,3.69-10.24,1-10.24-6.76,0-28.67-1.23-57.35-2.05-86a13.74,13.74,0,0,1,8.2-14.14c15-7.37,29.7-14.95,44.44-22.94,5.53-2.86,7.79-1.23,8,4.71v36.67h0v33.18a15.78,15.78,0,0,0,9.42,17.41C343.85,608.6,343,611.46,338.53,614.13Zm148.08,0h0v46.08c0,5.94-1.84,8.81-8.19,5.33l-129-69.85a13.54,13.54,0,0,1-7.58-13.52V500.24c0-10.65,0-11.26,10.25-6.76,42.19,20.49,84.18,41,126.37,61.45a12.29,12.29,0,0,1,7,12.7c0,15.57.2,30.52.2,45.68Zm-4.71-72.51c-32.77-16.18-65.74-31.95-98.72-47.73l-20.48-9.62c-4.71-3.89-5.74-7.17,1.43-9.63a29.11,29.11,0,0,0,6.14-4.1l100.16-42.19a19.27,19.27,0,0,1,16.8,0L600.91,481.2c2.86,1.22,7.37,1.63,7.16,5.53s-4.09,3.68-6.55,4.91l-102.41,50A17,17,0,0,1,481.9,541.62Zm136.42,69.64c-35.44,16.59-70.67,33.59-105.9,50.59-6.76,3.28-9.62,2.25-9.83-5.53-.2-30.11-.2-60.63-.2-90.12a10.44,10.44,0,0,1,6.55-10.86c35.64-17.82,71.28-35.43,106.92-53.46,7.37-3.68,9.83-2.05,9.62,6.15v45.06h2v45.06a12.29,12.29,0,0,1-8.39,13.11Zm84.18-10v43.22c0,5.53-1.44,9.42-8,5.94l-54.28-29.29a4.52,4.52,0,0,1-3-5.65,4.7,4.7,0,0,1,.29-.7,85.58,85.58,0,0,0,3.48-36.66,451.4,451.4,0,0,0,0-47.11c0-10.86,1.43-12.09,10.65-7.38,14.34,7,28.68,14.34,43.22,20.49a13.32,13.32,0,0,1,8.81,13.72c-.41,14.75-.41,29.08-.41,43.42Zm0-71.48L648,502.91a13.1,13.1,0,0,1-8.4-13.11,12.3,12.3,0,0,0-7-12.91c-3.48-1.63-3.68-4.5-3.48-8.19,1.23-27,0-27.45,25.6-37.89,12.09-5.12,24.38-9.63,36.26-15.16a17.63,17.63,0,0,1,16,0c37.49,17.62,75.17,34.82,112.86,52.23,5.12,6.15-1.23,8.19-3.89,11.68l-95.86,49.15a17.41,17.41,0,0,1-16.59,1ZM834,599.17c-20.48,9.84-39.53,20.49-59.19,30.32A113.39,113.39,0,0,0,735.47,650c-11.88,3.48-12.08,3.48-12.08-8.81V559.23a14.14,14.14,0,0,1,8.19-14.13L834,492.46c9.22-4.71,10.25-4.1,10.45,6.56v85.2A15.15,15.15,0,0,1,835,599.17Z"/><path class="cls-2" d="M861.85,537.32H859v-58A13.1,13.1,0,0,0,850.59,466L712.53,400.5a20.47,20.47,0,0,0-20.48,0c-16,7.37-32.16,14.33-48.34,20.48s-14.33,5.73-14.54-8.61V347.65A12.29,12.29,0,0,0,621,335c-47.73-21.71-95-43.63-143.38-65.54a15.78,15.78,0,0,0-13.93,0q-69.43,29.49-138.66,58a13.53,13.53,0,0,0-9.83,14.75v64.72c0,12.09,0,12.5-11.06,7.58-16-7.58-32.36-15.15-47.52-23.55a15.36,15.36,0,0,0-14.54,0q-68.82,30.31-136.83,59a15.78,15.78,0,0,0-11.47,16.59c-1,36.05,1.23,71.89-1,108.76,0,7.58,1.23,12.49,10,12.9,2.45,0,4.71,2,7.16,3.28,45.89,24.78,92,48.75,137.85,73.94a16.81,16.81,0,0,0,17.21,0c28.26-14.34,56.73-27.85,85-42.19a20.47,20.47,0,0,1,20.48,0c34.82,20.48,70.25,38.91,104.87,59.19a27.24,27.24,0,0,0,29.9,0c34-18.64,68.62-36.05,102.41-54.07a10.27,10.27,0,0,1,11.07,0c25,13.52,50.18,26.42,74.76,41a27.62,27.62,0,0,0,29.9,0c43-21.91,86.64-43,130.06-64.11a11.46,11.46,0,0,0,7.17-12.29C861.65,575.21,861.85,556.37,861.85,537.32ZM614.22,365.47v89.1c0,8.81-4.3,11.88-11.88,8.4-24.17-10.65-47.93-22.12-71.89-33.39a28.44,28.44,0,0,0-12.91-8.19c-12.7-6.35-12.7-6.35-2.86-15.57q45.47-22.74,90.12-45.88C611.15,357.07,614.42,358.1,614.22,365.47Zm-152.8-81.93a16.22,16.22,0,0,1,14.13,0l109.79,52c6.76,3.68,11.06,7.37,0,11.67-1.64,0-2.66,2.46-4.1,3.89l-93.81,48.34a13.72,13.72,0,0,1-13.72,0C448.93,387,423.94,374.89,399,362.6a82.13,82.13,0,0,0-23.55-11.67L369.46,347l-12.09-7.17c-3.28-2.05-8.19-2.87-7.58-8.61Zm-122.89,69L445,404.18a47,47,0,0,1,7.16,3.69c3.49,2.46,10.66,1.84,10.25,7s-6.56,4.51-10.25,6.15l-61.44,26c-2.67,1.23-5.53,1.84-8.4,2.87A57.76,57.76,0,0,1,374,447c-11.67-5.53-23.35-11.67-35.23-16.8a12.07,12.07,0,0,1-8.6-12.69V356.05C329.11,348.06,333.82,349.9,338.53,352.57ZM250.86,639.32c0,6.35-3.48,6.14-7.78,3.89l-26-13.72c-33-17.82-66-35.85-99.14-53.26a17.62,17.62,0,0,1-11.47-19.05V520.93h0V480c0-7.17,2.67-7.79,8.2-4.92L239.8,535.47a15,15,0,0,1,9.83,13.93c2.87,30.73,1.44,60.63,1.44,90.74Zm11.88-114.91H258a35.19,35.19,0,0,1-6.55-2.25l-122.9-61.45c-2.66-1.23-7.17-1.64-6.76-5.73s4.51-3.48,7-4.51l109.37-43a17.86,17.86,0,0,1,15.78,0c32.15,15.57,64.11,30.31,96.88,44.86,2.66,1.22,7,1.43,6.76,5.73s-3.9,4.1-6.56,5.12-8.4,3.48-12.9,4.92a12.9,12.9,0,0,0-10,14.54,10.23,10.23,0,0,1-5.32,10.85Zm75.79,89.72-58.79,29.08c-7.17,3.69-10.24,1-10.24-6.76,0-28.67-1.23-57.35-2.05-86a13.74,13.74,0,0,1,8.2-14.14c15-7.37,29.7-14.95,44.44-22.94,5.53-2.86,7.79-1.23,8,4.71v36.67h0v33.18a15.78,15.78,0,0,0,9.42,17.41C343.85,608.6,343,611.46,338.53,614.13Zm148.08,0h0v46.08c0,5.94-1.84,8.81-8.19,5.33l-129-69.85a13.54,13.54,0,0,1-7.58-13.52V500.24c0-10.65,0-11.26,10.25-6.76,42.19,20.49,84.18,41,126.37,61.45a12.29,12.29,0,0,1,7,12.7c0,15.57.2,30.52.2,45.68Zm-4.71-72.51c-32.77-16.18-65.74-31.95-98.72-47.73l-20.48-9.62c-4.71-3.89-5.74-7.17,1.43-9.63a29.11,29.11,0,0,0,6.14-4.1l100.16-42.19a19.27,19.27,0,0,1,16.8,0L600.91,481.2c2.86,1.22,7.37,1.63,7.16,5.53s-4.09,3.68-6.55,4.91l-102.41,50A17,17,0,0,1,481.9,541.62Zm136.42,69.64c-35.44,16.59-70.67,33.59-105.9,50.59-6.76,3.28-9.62,2.25-9.83-5.53-.2-30.11-.2-60.63-.2-90.12a10.44,10.44,0,0,1,6.55-10.86c35.64-17.82,71.28-35.43,106.92-53.46,7.37-3.68,9.83-2.05,9.62,6.15v45.06h2v45.06a12.29,12.29,0,0,1-8.39,13.11Zm84.18-10v43.22c0,5.53-1.44,9.42-8,5.94l-54.28-29.29a4.52,4.52,0,0,1-3-5.65,4.7,4.7,0,0,1,.29-.7,85.58,85.58,0,0,0,3.48-36.66,451.4,451.4,0,0,0,0-47.11c0-10.86,1.43-12.09,10.65-7.38,14.34,7,28.68,14.34,43.22,20.49a13.32,13.32,0,0,1,8.81,13.72c-.41,14.75-.41,29.08-.41,43.42Zm0-71.48L648,502.91a13.1,13.1,0,0,1-8.4-13.11,12.3,12.3,0,0,0-7-12.91c-3.48-1.63-3.68-4.5-3.48-8.19,1.23-27,0-27.45,25.6-37.89,12.09-5.12,24.38-9.63,36.26-15.16a17.63,17.63,0,0,1,16,0c37.49,17.62,75.17,34.82,112.86,52.23,5.12,6.15-1.23,8.19-3.89,11.68l-95.86,49.15a17.41,17.41,0,0,1-16.59,1ZM834,599.17c-20.48,9.84-39.53,20.49-59.19,30.32A113.39,113.39,0,0,0,735.47,650c-11.88,3.48-12.08,3.48-12.08-8.81V559.23a14.14,14.14,0,0,1,8.19-14.13L834,492.46c9.22-4.71,10.25-4.1,10.45,6.56v85.2A15.15,15.15,0,0,1,835,599.17Z"/><path class="cls-2" d="M363.72,484.27c-2.25-2-7-1.85-6.76-5.74s5.12-2.66,7.58-4.71,4.71-1.64,6.76-3.28a29.17,29.17,0,0,1-6.15,4.1C359,477.1,359,480.38,363.72,484.27Z"/><path class="cls-2" d="M357.37,339.87,369.46,347A88.22,88.22,0,0,1,350,336.8c-3.28-2.26-3.07-3.49,0-5.54C349.18,337,354.09,337.82,357.37,339.87Z"/><path class="cls-2" d="M375.4,350.93A81.89,81.89,0,0,1,400,362.6,167.86,167.86,0,0,1,375.4,350.93Z"/><path class="cls-2" d="M595.38,341.92c0,3.48-4.72,3.48-7.17,5.12a44.7,44.7,0,0,0-6.76,4.09c1.43-1.43,2.46-3.27,4.09-3.89,10.86-4.3,6.56-8,0-11.67a7.16,7.16,0,0,0,1.85,0C590.46,337.41,595.17,338,595.38,341.92Z"/><path class="cls-2" d="M817,480.38c2.67-3.49,9-5.53,3.9-11.68C828.26,474.64,828.05,474.85,817,480.38Z"/><path class="cls-2" d="M775.82,629.49c-13.72,5.32-26,13.52-39.32,20.48A113.25,113.25,0,0,1,775.82,629.49Z"/><path class="cls-2" d="M530.45,429.58a138.62,138.62,0,0,0-23.56-11.47c-1.64,0-4.09-1.23-4.3-3.48s2.05-3.07,3.69-3.89a43.67,43.67,0,0,0,8.4-4.92c-9.84,9.22-9.84,9.22,2.86,15.57A28.44,28.44,0,0,1,530.45,429.58Z"/><path class="cls-2" d="M530.45,429.58l-24.79-10.45c-2.25,0-5.32-1.63-5.32-4.91s3.27-3.69,5.53-4.71,5.94-2.46,8.81-3.69c-9.84,9.22-9.84,9.22,2.86,15.57A28.44,28.44,0,0,1,530.45,429.58Z"/><path class="cls-2" d="M775.82,629.49A169.09,169.09,0,0,1,736.5,650,113.25,113.25,0,0,1,775.82,629.49Z"/><path class="cls-2" d="M369.46,347A49,49,0,0,1,349,338c-4.09-2.45-5.53-5.12,0-6.76,0,5.74,4.3,6.56,7.58,8.61Z"/><path class="cls-2" d="M597.22,341.71c0,3.69-3.69,4.1-6.15,5.33s-6.35,2.66-9.62,4.09c1.43-1.43,2.46-3.27,4.09-3.89,10.86-4.3,6.56-8,0-11.67a16.56,16.56,0,0,1,5.53,1C593.53,337.61,597,338.43,597.22,341.71Z"/><path class="cls-2" d="M828.67,473.82c0,5.33-6.76,6.15-11.68,6.56,2.67-3.49,9-5.53,3.9-11.68C824.37,469.32,830.1,469.11,828.67,473.82Z"/><path class="cls-2" d="M363.72,484.27c-3.48,0-7.78-1.23-8.19-5.33s4.71-4.5,7.58-5.94a61.25,61.25,0,0,1,8.19-2.46,29.17,29.17,0,0,1-6.15,4.1C359,477.1,359,480.38,363.72,484.27Z"/><path class="cls-2" d="M400,362.6a41,41,0,0,1-23.55-11.67A82,82,0,0,1,400,362.6Z"/></g></g></g></g></svg>